<?xml version="1.0" encoding="UTF-8"?>
<!DOCTYPE svg PUBLIC "-//W3C//DTD SVG 1.1//EN" "http://www.w3.org/Graphics/SVG/1.1/DTD/svg11.dtd">
<svg width="273mm" height="159mm" viewBox="0 0 27300 15900" version="1.1" baseProfile="tiny" xmlns="http://www.w3.org/2000/svg" stroke-width="28.222" stroke-linejoin="round" xml:space="preserve">
 <path fill="rgb(255,255,255)" stroke="none" d="M 13657,15909 L 0,15909 0,0 27313,0 27313,15909 13657,15909 Z"/>
 <path fill="none" stroke="rgb(179,179,179)" stroke-linejoin="round" d="M 12636,13963 L 1993,13963 1993,1777 23278,1777 23278,13963 12636,13963 Z"/>
 <path fill="none" stroke="rgb(179,179,179)" stroke-linejoin="round" d="M 23278,1776 L 1993,1776"/>
 <path fill="none" stroke="rgb(179,179,179)" stroke-linejoin="round" d="M 23278,3991 L 1993,3991"/>
 <path fill="none" stroke="rgb(179,179,179)" stroke-linejoin="round" d="M 23278,6207 L 1993,6207"/>
 <path fill="none" stroke="rgb(179,179,179)" stroke-linejoin="round" d="M 23278,8422 L 1993,8422"/>
 <path fill="none" stroke="rgb(179,179,179)" stroke-linejoin="round" d="M 23278,10638 L 1993,10638"/>
 <path fill="none" stroke="rgb(179,179,179)" stroke-linejoin="round" d="M 23278,12854 L 1993,12854"/>
 <path fill="none" stroke="rgb(179,179,179)" stroke-linejoin="round" d="M 1993,14111 L 1993,13961"/>
 <path fill="none" stroke="rgb(179,179,179)" stroke-linejoin="round" d="M 1993,14111 L 1993,13961"/>
 <path fill="none" stroke="rgb(179,179,179)" stroke-linejoin="round" d="M 2658,14111 L 2658,13961"/>
 <path fill="none" stroke="rgb(179,179,179)" stroke-linejoin="round" d="M 2658,14111 L 2658,13961"/>
 <path fill="none" stroke="rgb(179,179,179)" stroke-linejoin="round" d="M 3323,14111 L 3323,13961"/>
 <path fill="none" stroke="rgb(179,179,179)" stroke-linejoin="round" d="M 3323,14111 L 3323,13961"/>
 <path fill="none" stroke="rgb(179,179,179)" stroke-linejoin="round" d="M 3988,14111 L 3988,13961"/>
 <path fill="none" stroke="rgb(179,179,179)" stroke-linejoin="round" d="M 3988,14111 L 3988,13961"/>
 <path fill="none" stroke="rgb(179,179,179)" stroke-linejoin="round" d="M 4653,14111 L 4653,13961"/>
 <path fill="none" stroke="rgb(179,179,179)" stroke-linejoin="round" d="M 4653,14111 L 4653,13961"/>
 <path fill="none" stroke="rgb(179,179,179)" stroke-linejoin="round" d="M 5318,14111 L 5318,13961"/>
 <path fill="none" stroke="rgb(179,179,179)" stroke-linejoin="round" d="M 5318,14111 L 5318,13961"/>
 <path fill="none" stroke="rgb(179,179,179)" stroke-linejoin="round" d="M 5984,14111 L 5984,13961"/>
 <path fill="none" stroke="rgb(179,179,179)" stroke-linejoin="round" d="M 5984,14111 L 5984,13961"/>
 <path fill="none" stroke="rgb(179,179,179)" stroke-linejoin="round" d="M 6649,14111 L 6649,13961"/>
 <path fill="none" stroke="rgb(179,179,179)" stroke-linejoin="round" d="M 6649,14111 L 6649,13961"/>
 <path fill="none" stroke="rgb(179,179,179)" stroke-linejoin="round" d="M 7314,14111 L 7314,13961"/>
 <path fill="none" stroke="rgb(179,179,179)" stroke-linejoin="round" d="M 7314,14111 L 7314,13961"/>
 <path fill="none" stroke="rgb(179,179,179)" stroke-linejoin="round" d="M 7979,14111 L 7979,13961"/>
 <path fill="none" stroke="rgb(179,179,179)" stroke-linejoin="round" d="M 7979,14111 L 7979,13961"/>
 <path fill="none" stroke="rgb(179,179,179)" stroke-linejoin="round" d="M 8644,14111 L 8644,13961"/>
 <path fill="none" stroke="rgb(179,179,179)" stroke-linejoin="round" d="M 8644,14111 L 8644,13961"/>
 <path fill="none" stroke="rgb(179,179,179)" stroke-linejoin="round" d="M 9310,14111 L 9310,13961"/>
 <path fill="none" stroke="rgb(179,179,179)" stroke-linejoin="round" d="M 9310,14111 L 9310,13961"/>
 <path fill="none" stroke="rgb(179,179,179)" stroke-linejoin="round" d="M 9975,14111 L 9975,13961"/>
 <path fill="none" stroke="rgb(179,179,179)" stroke-linejoin="round" d="M 9975,14111 L 9975,13961"/>
 <path fill="none" stroke="rgb(179,179,179)" stroke-linejoin="round" d="M 10640,14111 L 10640,13961"/>
 <path fill="none" stroke="rgb(179,179,179)" stroke-linejoin="round" d="M 10640,14111 L 10640,13961"/>
 <path fill="none" stroke="rgb(179,179,179)" stroke-linejoin="round" d="M 11305,14111 L 11305,13961"/>
 <path fill="none" stroke="rgb(179,179,179)" stroke-linejoin="round" d="M 11305,14111 L 11305,13961"/>
 <path fill="none" stroke="rgb(179,179,179)" stroke-linejoin="round" d="M 11970,14111 L 11970,13961"/>
 <path fill="none" stroke="rgb(179,179,179)" stroke-linejoin="round" d="M 11970,14111 L 11970,13961"/>
 <path fill="none" stroke="rgb(179,179,179)" stroke-linejoin="round" d="M 12636,14111 L 12636,13961"/>
 <path fill="none" stroke="rgb(179,179,179)" stroke-linejoin="round" d="M 12636,14111 L 12636,13961"/>
 <path fill="none" stroke="rgb(179,179,179)" stroke-linejoin="round" d="M 13301,14111 L 13301,13961"/>
 <path fill="none" stroke="rgb(179,179,179)" stroke-linejoin="round" d="M 13301,14111 L 13301,13961"/>
 <path fill="none" stroke="rgb(179,179,179)" stroke-linejoin="round" d="M 13965,14111 L 13965,13961"/>
 <path fill="none" stroke="rgb(179,179,179)" stroke-linejoin="round" d="M 13965,14111 L 13965,13961"/>
 <path fill="none" stroke="rgb(179,179,179)" stroke-linejoin="round" d="M 14630,14111 L 14630,13961"/>
 <path fill="none" stroke="rgb(179,179,179)" stroke-linejoin="round" d="M 14630,14111 L 14630,13961"/>
 <path fill="none" stroke="rgb(179,179,179)" stroke-linejoin="round" d="M 15295,14111 L 15295,13961"/>
 <path fill="none" stroke="rgb(179,179,179)" stroke-linejoin="round" d="M 15295,14111 L 15295,13961"/>
 <path fill="none" stroke="rgb(179,179,179)" stroke-linejoin="round" d="M 15960,14111 L 15960,13961"/>
 <path fill="none" stroke="rgb(179,179,179)" stroke-linejoin="round" d="M 15960,14111 L 15960,13961"/>
 <path fill="none" stroke="rgb(179,179,179)" stroke-linejoin="round" d="M 16626,14111 L 16626,13961"/>
 <path fill="none" stroke="rgb(179,179,179)" stroke-linejoin="round" d="M 16626,14111 L 16626,13961"/>
 <path fill="none" stroke="rgb(179,179,179)" stroke-linejoin="round" d="M 17291,14111 L 17291,13961"/>
 <path fill="none" stroke="rgb(179,179,179)" stroke-linejoin="round" d="M 17291,14111 L 17291,13961"/>
 <path fill="none" stroke="rgb(179,179,179)" stroke-linejoin="round" d="M 17956,14111 L 17956,13961"/>
 <path fill="none" stroke="rgb(179,179,179)" stroke-linejoin="round" d="M 17956,14111 L 17956,13961"/>
 <path fill="none" stroke="rgb(179,179,179)" stroke-linejoin="round" d="M 18621,14111 L 18621,13961"/>
 <path fill="none" stroke="rgb(179,179,179)" stroke-linejoin="round" d="M 18621,14111 L 18621,13961"/>
 <path fill="none" stroke="rgb(179,179,179)" stroke-linejoin="round" d="M 19286,14111 L 19286,13961"/>
 <path fill="none" stroke="rgb(179,179,179)" stroke-linejoin="round" d="M 19286,14111 L 19286,13961"/>
 <path fill="none" stroke="rgb(179,179,179)" stroke-linejoin="round" d="M 19952,14111 L 19952,13961"/>
 <path fill="none" stroke="rgb(179,179,179)" stroke-linejoin="round" d="M 19952,14111 L 19952,13961"/>
 <path fill="none" stroke="rgb(179,179,179)" stroke-linejoin="round" d="M 20617,14111 L 20617,13961"/>
 <path fill="none" stroke="rgb(179,179,179)" stroke-linejoin="round" d="M 20617,14111 L 20617,13961"/>
 <path fill="none" stroke="rgb(179,179,179)" stroke-linejoin="round" d="M 21282,14111 L 21282,13961"/>
 <path fill="none" stroke="rgb(179,179,179)" stroke-linejoin="round" d="M 21282,14111 L 21282,13961"/>
 <path fill="none" stroke="rgb(179,179,179)" stroke-linejoin="round" d="M 21947,14111 L 21947,13961"/>
 <path fill="none" stroke="rgb(179,179,179)" stroke-linejoin="round" d="M 21947,14111 L 21947,13961"/>
 <path fill="none" stroke="rgb(179,179,179)" stroke-linejoin="round" d="M 22612,14111 L 22612,13961"/>
 <path fill="none" stroke="rgb(179,179,179)" stroke-linejoin="round" d="M 22612,14111 L 22612,13961"/>
 <path fill="none" stroke="rgb(179,179,179)" stroke-linejoin="round" d="M 23278,14111 L 23278,13961"/>
 <path fill="none" stroke="rgb(179,179,179)" stroke-linejoin="round" d="M 23278,14111 L 23278,13961"/>
 <path fill="none" stroke="rgb(179,179,179)" stroke-linejoin="round" d="M 1993,13961 L 23278,13961"/>
 <path fill="none" stroke="rgb(179,179,179)" stroke-linejoin="round" d="M 1843,1776 L 1993,1776"/>
 <path fill="none" stroke="rgb(179,179,179)" stroke-linejoin="round" d="M 1843,1776 L 1993,1776"/>
 <path fill="none" stroke="rgb(179,179,179)" stroke-linejoin="round" d="M 1843,3991 L 1993,3991"/>
 <path fill="none" stroke="rgb(179,179,179)" stroke-linejoin="round" d="M 1843,3991 L 1993,3991"/>
 <path fill="none" stroke="rgb(179,179,179)" stroke-linejoin="round" d="M 1843,6207 L 1993,6207"/>
 <path fill="none" stroke="rgb(179,179,179)" stroke-linejoin="round" d="M 1843,6207 L 1993,6207"/>
 <path fill="none" stroke="rgb(179,179,179)" stroke-linejoin="round" d="M 1843,8422 L 1993,8422"/>
 <path fill="none" stroke="rgb(179,179,179)" stroke-linejoin="round" d="M 1843,8422 L 1993,8422"/>
 <path fill="none" stroke="rgb(179,179,179)" stroke-linejoin="round" d="M 1843,10638 L 1993,10638"/>
 <path fill="none" stroke="rgb(179,179,179)" stroke-linejoin="round" d="M 1843,10638 L 1993,10638"/>
 <path fill="none" stroke="rgb(179,179,179)" stroke-linejoin="round" d="M 1843,12854 L 1993,12854"/>
 <path fill="none" stroke="rgb(179,179,179)" stroke-linejoin="round" d="M 1843,12854 L 1993,12854"/>
 <path fill="none" stroke="rgb(179,179,179)" stroke-linejoin="round" d="M 1993,13961 L 1993,1776"/>
 <path fill="none" stroke="rgb(255,66,14)" stroke-width="80" stroke-linejoin="round" d="M 1993,6207 L 2658,3991 3323,3991 3988,6207 4653,7315 5318,8422 5984,5099 6649,5099 7314,5099 7979,5099 8644,3991 9310,3991 9975,5099 10640,2883 11305,2883 11970,2883 12636,1776 13301,1776 13965,1776 14630,1776 15295,1776 15960,1776 16626,1776 17291,1776 17956,1776 18621,1776 19286,1776 19952,1776 20617,1776 21282,1776 21947,1776 22612,1776 23278,1776"/>
 <path fill="none" stroke="rgb(255,211,32)" stroke-width="80" stroke-linejoin="round" d="M 1993,13961 L 2658,12854 3323,7315 3988,10638 4653,11746 5318,9530 5984,9530 6649,8422 7314,8422 7979,6207 8644,6207 9310,6207 9975,6207 10640,5099 11305,5099 11970,5099 12636,6207 13301,7315 13965,7315 14630,7315 15295,7315 15960,8422 16626,8422 17291,8422 17956,7315 18621,7315 19286,7315 19952,7315 20617,6207 21282,6207 21947,5099 22612,5099 23278,3991"/>
 <path fill="none" stroke="rgb(87,157,28)" stroke-width="80" stroke-linejoin="round" d="M 1993,9530 L 2658,5099 3323,7315 3988,5099 4653,8422 5318,7315 5984,7315 6649,7315 7314,7315 7979,3991 8644,5099 9310,7315 9975,7315 10640,7315 11305,8422 11970,8422 12636,7315 13301,8422 13965,8422 14630,8422 15295,8422 15960,9530 16626,9530 17291,9530 17956,9530 18621,9530 19286,10638 19952,10638 20617,11746 21282,11746 21947,11746 22612,12854 23278,11746"/>
 <text class="TextShape"><tspan class="TextParagraph" font-family="Liberation Sans, sans-serif" font-size="353px" font-weight="400"><tspan class="TextPosition" x="1900" y="14529"/><tspan class="TextPosition" x="1900" y="14529"><tspan fill="rgb(0,0,0)" stroke="none">1</tspan></tspan></tspan></text>
 <text class="TextShape"><tspan class="TextParagraph" font-family="Liberation Sans, sans-serif" font-size="353px" font-weight="400"><tspan class="TextPosition" x="2565" y="14529"/><tspan class="TextPosition" x="2565" y="14529"><tspan fill="rgb(0,0,0)" stroke="none">2</tspan></tspan></tspan></text>
 <text class="TextShape"><tspan class="TextParagraph" font-family="Liberation Sans, sans-serif" font-size="353px" font-weight="400"><tspan class="TextPosition" x="3230" y="14529"/><tspan class="TextPosition" x="3230" y="14529"><tspan fill="rgb(0,0,0)" stroke="none">3</tspan></tspan></tspan></text>
 <text class="TextShape"><tspan class="TextParagraph" font-family="Liberation Sans, sans-serif" font-size="353px" font-weight="400"><tspan class="TextPosition" x="3895" y="14529"/><tspan class="TextPosition" x="3895" y="14529"><tspan fill="rgb(0,0,0)" stroke="none">4</tspan></tspan></tspan></text>
 <text class="TextShape"><tspan class="TextParagraph" font-family="Liberation Sans, sans-serif" font-size="353px" font-weight="400"><tspan class="TextPosition" x="4560" y="14529"/><tspan class="TextPosition" x="4560" y="14529"><tspan fill="rgb(0,0,0)" stroke="none">5</tspan></tspan></tspan></text>
 <text class="TextShape"><tspan class="TextParagraph" font-family="Liberation Sans, sans-serif" font-size="353px" font-weight="400"><tspan class="TextPosition" x="5225" y="14529"/><tspan class="TextPosition" x="5225" y="14529"><tspan fill="rgb(0,0,0)" stroke="none">6</tspan></tspan></tspan></text>
 <text class="TextShape"><tspan class="TextParagraph" font-family="Liberation Sans, sans-serif" font-size="353px" font-weight="400"><tspan class="TextPosition" x="5891" y="14529"/><tspan class="TextPosition" x="5891" y="14529"><tspan fill="rgb(0,0,0)" stroke="none">7</tspan></tspan></tspan></text>
 <text class="TextShape"><tspan class="TextParagraph" font-family="Liberation Sans, sans-serif" font-size="353px" font-weight="400"><tspan class="TextPosition" x="6556" y="14529"/><tspan class="TextPosition" x="6556" y="14529"><tspan fill="rgb(0,0,0)" stroke="none">8</tspan></tspan></tspan></text>
 <text class="TextShape"><tspan class="TextParagraph" font-family="Liberation Sans, sans-serif" font-size="353px" font-weight="400"><tspan class="TextPosition" x="7221" y="14529"/><tspan class="TextPosition" x="7221" y="14529"><tspan fill="rgb(0,0,0)" stroke="none">9</tspan></tspan></tspan></text>
 <text class="TextShape"><tspan class="TextParagraph" font-family="Liberation Sans, sans-serif" font-size="353px" font-weight="400"><tspan class="TextPosition" x="7794" y="14529"/><tspan class="TextPosition" x="7794" y="14529"><tspan fill="rgb(0,0,0)" stroke="none">10</tspan></tspan></tspan></text>
 <text class="TextShape"><tspan class="TextParagraph" font-family="Liberation Sans, sans-serif" font-size="353px" font-weight="400"><tspan class="TextPosition" x="8459" y="14529"/><tspan class="TextPosition" x="8459" y="14529"><tspan fill="rgb(0,0,0)" stroke="none">11</tspan></tspan></tspan></text>
 <text class="TextShape"><tspan class="TextParagraph" font-family="Liberation Sans, sans-serif" font-size="353px" font-weight="400"><tspan class="TextPosition" x="9125" y="14529"/><tspan class="TextPosition" x="9125" y="14529"><tspan fill="rgb(0,0,0)" stroke="none">12</tspan></tspan></tspan></text>
 <text class="TextShape"><tspan class="TextParagraph" font-family="Liberation Sans, sans-serif" font-size="353px" font-weight="400"><tspan class="TextPosition" x="9790" y="14529"/><tspan class="TextPosition" x="9790" y="14529"><tspan fill="rgb(0,0,0)" stroke="none">13</tspan></tspan></tspan></text>
 <text class="TextShape"><tspan class="TextParagraph" font-family="Liberation Sans, sans-serif" font-size="353px" font-weight="400"><tspan class="TextPosition" x="10455" y="14529"/><tspan class="TextPosition" x="10455" y="14529"><tspan fill="rgb(0,0,0)" stroke="none">14</tspan></tspan></tspan></text>
 <text class="TextShape"><tspan class="TextParagraph" font-family="Liberation Sans, sans-serif" font-size="353px" font-weight="400"><tspan class="TextPosition" x="11120" y="14529"/><tspan class="TextPosition" x="11120" y="14529"><tspan fill="rgb(0,0,0)" stroke="none">15</tspan></tspan></tspan></text>
 <text class="TextShape"><tspan class="TextParagraph" font-family="Liberation Sans, sans-serif" font-size="353px" font-weight="400"><tspan class="TextPosition" x="11785" y="14529"/><tspan class="TextPosition" x="11785" y="14529"><tspan fill="rgb(0,0,0)" stroke="none">16</tspan></tspan></tspan></text>
 <text class="TextShape"><tspan class="TextParagraph" font-family="Liberation Sans, sans-serif" font-size="353px" font-weight="400"><tspan class="TextPosition" x="12451" y="14529"/><tspan class="TextPosition" x="12451" y="14529"><tspan fill="rgb(0,0,0)" stroke="none">17</tspan></tspan></tspan></text>
 <text class="TextShape"><tspan class="TextParagraph" font-family="Liberation Sans, sans-serif" font-size="353px" font-weight="400"><tspan class="TextPosition" x="13116" y="14529"/><tspan class="TextPosition" x="13116" y="14529"><tspan fill="rgb(0,0,0)" stroke="none">18</tspan></tspan></tspan></text>
 <text class="TextShape"><tspan class="TextParagraph" font-family="Liberation Sans, sans-serif" font-size="353px" font-weight="400"><tspan class="TextPosition" x="13781" y="14529"/><tspan class="TextPosition" x="13781" y="14529"><tspan fill="rgb(0,0,0)" stroke="none">19</tspan></tspan></tspan></text>
 <text class="TextShape"><tspan class="TextParagraph" font-family="Liberation Sans, sans-serif" font-size="353px" font-weight="400"><tspan class="TextPosition" x="14446" y="14529"/><tspan class="TextPosition" x="14446" y="14529"><tspan fill="rgb(0,0,0)" stroke="none">20</tspan></tspan></tspan></text>
 <text class="TextShape"><tspan class="TextParagraph" font-family="Liberation Sans, sans-serif" font-size="353px" font-weight="400"><tspan class="TextPosition" x="15111" y="14529"/><tspan class="TextPosition" x="15111" y="14529"><tspan fill="rgb(0,0,0)" stroke="none">21</tspan></tspan></tspan></text>
 <text class="TextShape"><tspan class="TextParagraph" font-family="Liberation Sans, sans-serif" font-size="353px" font-weight="400"><tspan class="TextPosition" x="15776" y="14529"/><tspan class="TextPosition" x="15776" y="14529"><tspan fill="rgb(0,0,0)" stroke="none">22</tspan></tspan></tspan></text>
 <text class="TextShape"><tspan class="TextParagraph" font-family="Liberation Sans, sans-serif" font-size="353px" font-weight="400"><tspan class="TextPosition" x="16442" y="14529"/><tspan class="TextPosition" x="16442" y="14529"><tspan fill="rgb(0,0,0)" stroke="none">23</tspan></tspan></tspan></text>
 <text class="TextShape"><tspan class="TextParagraph" font-family="Liberation Sans, sans-serif" font-size="353px" font-weight="400"><tspan class="TextPosition" x="17107" y="14529"/><tspan class="TextPosition" x="17107" y="14529"><tspan fill="rgb(0,0,0)" stroke="none">24</tspan></tspan></tspan></text>
 <text class="TextShape"><tspan class="TextParagraph" font-family="Liberation Sans, sans-serif" font-size="353px" font-weight="400"><tspan class="TextPosition" x="17772" y="14529"/><tspan class="TextPosition" x="17772" y="14529"><tspan fill="rgb(0,0,0)" stroke="none">25</tspan></tspan></tspan></text>
 <text class="TextShape"><tspan class="TextParagraph" font-family="Liberation Sans, sans-serif" font-size="353px" font-weight="400"><tspan class="TextPosition" x="18437" y="14529"/><tspan class="TextPosition" x="18437" y="14529"><tspan fill="rgb(0,0,0)" stroke="none">26</tspan></tspan></tspan></text>
 <text class="TextShape"><tspan class="TextParagraph" font-family="Liberation Sans, sans-serif" font-size="353px" font-weight="400"><tspan class="TextPosition" x="19102" y="14529"/><tspan class="TextPosition" x="19102" y="14529"><tspan fill="rgb(0,0,0)" stroke="none">27</tspan></tspan></tspan></text>
 <text class="TextShape"><tspan class="TextParagraph" font-family="Liberation Sans, sans-serif" font-size="353px" font-weight="400"><tspan class="TextPosition" x="19768" y="14529"/><tspan class="TextPosition" x="19768" y="14529"><tspan fill="rgb(0,0,0)" stroke="none">28</tspan></tspan></tspan></text>
 <text class="TextShape"><tspan class="TextParagraph" font-family="Liberation Sans, sans-serif" font-size="353px" font-weight="400"><tspan class="TextPosition" x="20433" y="14529"/><tspan class="TextPosition" x="20433" y="14529"><tspan fill="rgb(0,0,0)" stroke="none">29</tspan></tspan></tspan></text>
 <text class="TextShape"><tspan class="TextParagraph" font-family="Liberation Sans, sans-serif" font-size="353px" font-weight="400"><tspan class="TextPosition" x="21098" y="14529"/><tspan class="TextPosition" x="21098" y="14529"><tspan fill="rgb(0,0,0)" stroke="none">30</tspan></tspan></tspan></text>
 <text class="TextShape"><tspan class="TextParagraph" font-family="Liberation Sans, sans-serif" font-size="353px" font-weight="400"><tspan class="TextPosition" x="21763" y="14529"/><tspan class="TextPosition" x="21763" y="14529"><tspan fill="rgb(0,0,0)" stroke="none">31</tspan></tspan></tspan></text>
 <text class="TextShape"><tspan class="TextParagraph" font-family="Liberation Sans, sans-serif" font-size="353px" font-weight="400"><tspan class="TextPosition" x="22428" y="14529"/><tspan class="TextPosition" x="22428" y="14529"><tspan fill="rgb(0,0,0)" stroke="none">32</tspan></tspan></tspan></text>
 <text class="TextShape"><tspan class="TextParagraph" font-family="Liberation Sans, sans-serif" font-size="353px" font-weight="400"><tspan class="TextPosition" x="23094" y="14529"/><tspan class="TextPosition" x="23094" y="14529"><tspan fill="rgb(0,0,0)" stroke="none">33</tspan></tspan></tspan></text>
 <text class="TextShape"><tspan class="TextParagraph" font-family="Liberation Sans, sans-serif" font-size="353px" font-weight="400"><tspan class="TextPosition" x="1558" y="1896"/><tspan class="TextPosition" x="1558" y="1896"><tspan fill="rgb(0,0,0)" stroke="none">1</tspan></tspan></tspan></text>
 <text class="TextShape"><tspan class="TextParagraph" font-family="Liberation Sans, sans-serif" font-size="353px" font-weight="400"><tspan class="TextPosition" x="1558" y="4111"/><tspan class="TextPosition" x="1558" y="4111"><tspan fill="rgb(0,0,0)" stroke="none">3</tspan></tspan></tspan></text>
 <text class="TextShape"><tspan class="TextParagraph" font-family="Liberation Sans, sans-serif" font-size="353px" font-weight="400"><tspan class="TextPosition" x="1558" y="6327"/><tspan class="TextPosition" x="1558" y="6327"><tspan fill="rgb(0,0,0)" stroke="none">5</tspan></tspan></tspan></text>
 <text class="TextShape"><tspan class="TextParagraph" font-family="Liberation Sans, sans-serif" font-size="353px" font-weight="400"><tspan class="TextPosition" x="1558" y="8543"/><tspan class="TextPosition" x="1558" y="8543"><tspan fill="rgb(0,0,0)" stroke="none">7</tspan></tspan></tspan></text>
 <text class="TextShape"><tspan class="TextParagraph" font-family="Liberation Sans, sans-serif" font-size="353px" font-weight="400"><tspan class="TextPosition" x="1558" y="10759"/><tspan class="TextPosition" x="1558" y="10759"><tspan fill="rgb(0,0,0)" stroke="none">9</tspan></tspan></tspan></text>
 <text class="TextShape"><tspan class="TextParagraph" font-family="Liberation Sans, sans-serif" font-size="353px" font-weight="400"><tspan class="TextPosition" x="1373" y="12975"/><tspan class="TextPosition" x="1373" y="12975"><tspan fill="rgb(0,0,0)" stroke="none">11</tspan></tspan></tspan></text>
 <text class="TextShape"><tspan class="TextParagraph" font-family="Liberation Sans, sans-serif" font-size="459px" font-weight="400"><tspan class="TextPosition" x="10085" y="1015"/><tspan class="TextPosition" x="10085" y="1015"><tspan fill="rgb(0,0,0)" stroke="none">Danish Superliga Season 2018/2019</tspan></tspan></tspan></text>
 <path fill="none" stroke="rgb(255,66,14)" stroke-width="80" stroke-linejoin="round" d="M 24312,7456 L 25112,7456"/>
 <path fill="none" stroke="rgb(255,211,32)" stroke-width="80" stroke-linejoin="round" d="M 24312,7954 L 25112,7954"/>
 <path fill="none" stroke="rgb(87,157,28)" stroke-width="80" stroke-linejoin="round" d="M 24312,8451 L 25112,8451"/>
 <text class="TextShape"><tspan class="TextParagraph" font-family="Liberation Sans, sans-serif" font-size="353px" font-weight="400"><tspan class="TextPosition" x="25212" y="7576"/><tspan class="TextPosition" x="25212" y="7576"><tspan fill="rgb(0,0,0)" stroke="none">Aalborg BK</tspan></tspan></tspan></text>
 <text class="TextShape"><tspan class="TextParagraph" font-family="Liberation Sans, sans-serif" font-size="353px" font-weight="400"><tspan class="TextPosition" x="25212" y="8073"/><tspan class="TextPosition" x="25212" y="8073"><tspan fill="rgb(0,0,0)" stroke="none">Odense BK</tspan></tspan></tspan></text>
 <text class="TextShape"><tspan class="TextParagraph" font-family="Liberation Sans, sans-serif" font-size="353px" font-weight="400"><tspan class="TextPosition" x="25212" y="8571"/><tspan class="TextPosition" x="25212" y="8571"><tspan fill="rgb(0,0,0)" stroke="none">Esbjerg fB</tspan></tspan></tspan></text>
 <text class="TextShape"><tspan class="TextParagraph" font-family="Liberation Sans, sans-serif" font-size="318px" font-weight="400"><tspan class="TextPosition" x="12114" y="15315"/><tspan class="TextPosition" x="12114" y="15315"><tspan fill="rgb(0,0,0)" stroke="none">Round</tspan></tspan></tspan></text>
 <text class="TextShape" transform="translate(837,8675) rotate(-90) translate(-837,-8675)"><tspan class="TextParagraph" font-family="Liberation Sans, sans-serif" font-size="318px" font-weight="400"><tspan class="TextPosition" x="837" y="8675"/><tspan class="TextPosition" x="837" y="8675"><tspan fill="rgb(0,0,0)" stroke="none">Position</tspan></tspan></tspan></text>
</svg>